HIERARCHY
ROOT Hips
{
	OFFSET	0.00	0.00	0.00
	CHANNELS 6 Xposition Yposition Zposition Zrotation Xrotation Yrotation
	JOINT LeftUpLeg
	{
		OFFSET	 0.126116	-0.014019	-0.065224
		CHANNELS 3 Zrotation Xrotation Yrotation
		JOINT LeftLeg
		{
			OFFSET	 0.000000	 0.000000	 0.569914
			CHANNELS 3 Zrotation Xrotation Yrotation
			JOINT LeftFoot
			{
				OFFSET	 0.000000	 0.000000	 0.544423
				CHANNELS 3 Zrotation Xrotation Yrotation
				JOINT LeftToeBase
				{
					OFFSET	 0.000000	 0.000000	 0.207117
					CHANNELS 3 Zrotation Xrotation Yrotation
					End Site
					{
						OFFSET	 0.000000	 0.000000	 0.207117
					}
				}
			}
		}
	}
	JOINT RightUpLeg
	{
		OFFSET	-0.124023	-0.008373	-0.065224
		CHANNELS 3 Zrotation Xrotation Yrotation
		JOINT RightLeg
		{
			OFFSET	 0.000000	 0.000000	 0.570047
			CHANNELS 3 Zrotation Xrotation Yrotation
			JOINT RightFoot
			{
				OFFSET	 0.000000	 0.000000	 0.544354
				CHANNELS 3 Zrotation Xrotation Yrotation
				JOINT RightToeBase
				{
					OFFSET	 0.000000	 0.000000	 0.207540
					CHANNELS 3 Zrotation Xrotation Yrotation
					End Site
					{
						OFFSET	 0.000000	 0.000000	 0.207540
					}
				}
			}
		}
	}
	JOINT Spine
	{
		OFFSET	 0.000184	-0.007763	 0.117403
		CHANNELS 3 Zrotation Xrotation Yrotation
		JOINT Spine1
		{
			OFFSET	 0.000000	 0.000000	 0.137269
			CHANNELS 3 Zrotation Xrotation Yrotation
			JOINT Spine2
			{
				OFFSET	 0.000000	 0.000000	 0.156879
				CHANNELS 3 Zrotation Xrotation Yrotation
				JOINT LeftShoulder
				{
					OFFSET	 0.080501	-0.002496	 0.160144
					CHANNELS 3 Zrotation Xrotation Yrotation
					JOINT LeftArm
					{
						OFFSET	 0.000000	 0.000000	 0.164363
						CHANNELS 3 Zrotation Xrotation Yrotation
						JOINT LeftForeArm
						{
							OFFSET	 0.000000	 0.000000	 0.364576
							CHANNELS 3 Zrotation Xrotation Yrotation
							JOINT LeftHand
							{
								OFFSET	 0.000000	 0.000000	 0.360812
								CHANNELS 3 Zrotation Xrotation Yrotation
								JOINT LeftHandIndex1
								{
									OFFSET	 0.000000	 0.000000	 0.086006
									CHANNELS 3 Zrotation Xrotation Yrotation
									JOINT LeftHandIndex2
									{
										OFFSET	 0.000000	 0.000000	 0.047236
										CHANNELS 3 Zrotation Xrotation Yrotation
										JOINT LeftHandIndex3
										{
											OFFSET	-0.004284	-0.000551	 0.038166
											CHANNELS 3 Zrotation Xrotation Yrotation
											End Site
											{
												OFFSET	-0.004284	-0.000551	 0.038166
											}
										}
									}
								}
							}
						}
					}
				}
				JOINT Neck
				{
					OFFSET	 0.000000	 0.000000	 0.176489
					CHANNELS 3 Zrotation Xrotation Yrotation
					JOINT Head
					{
						OFFSET	 0.000000	-0.001747	 0.077940
						CHANNELS 3 Zrotation Xrotation Yrotation
						End Site
						{
							OFFSET	 0.000000	-0.001747	 0.077940
						}
					}
				}
				JOINT RightShoulder
				{
					OFFSET	-0.080363	 0.000306	 0.159706
					CHANNELS 3 Zrotation Xrotation Yrotation
					JOINT RightArm
					{
						OFFSET	 0.000000	 0.000000	 0.164196
						CHANNELS 3 Zrotation Xrotation Yrotation
						JOINT RightForeArm
						{
							OFFSET	 0.000000	 0.000000	 0.365611
							CHANNELS 3 Zrotation Xrotation Yrotation
							JOINT RightHand
							{
								OFFSET	 0.000000	 0.000000	 0.360648
								CHANNELS 3 Zrotation Xrotation Yrotation
								JOINT RightHandIndex1
								{
									OFFSET	 0.000000	 0.000000	 0.069977
									CHANNELS 3 Zrotation Xrotation Yrotation
									JOINT RightHandIndex2
									{
										OFFSET	 0.000000	 0.000000	 0.052305
										CHANNELS 3 Zrotation Xrotation Yrotation
										JOINT RightHandIndex3
										{
											OFFSET	 0.009002	-0.000782	 0.042196
											CHANNELS 3 Zrotation Xrotation Yrotation
											End Site
											{
												OFFSET	 0.009002	-0.000782	 0.042196
											}
										}
									}
								}
							}
						}
					}
				}
			}
		}
	}
}
MOTION
Frames:    5
Frame Time: 0.03333334
-0.000472	 0.017197	 1.306340	 0.003797	 0.005560	-0.120607	-17.288650	-1.807265	-179.173600	 1.470045	-12.212610	-0.713427	-3.336331	 64.998380	-3.114244	-2.385833	 28.452760	 0.000004	 17.161250	-2.363836	 179.435900	-1.445985	-13.040910	 0.749441	 3.331887	 65.224310	 2.951133	 2.384658	 28.388730	 0.000004	 2.804080	 2.757089	-0.044316	 1.438301	 3.568744	 0.582115	-4.325050	-4.466894	-0.946198	-91.776120	 78.527470	 179.999900	 67.644020	 46.151910	-50.789660	-8.165117	 0.446703	-1.114637	-31.398320	-6.535995	-4.525272	-2.635965	 4.993658	 6.788941	-5.165319	 0.784187	 3.516649	-5.225038	 0.466231	 0.424329	-0.000002	-3.783157	-0.089647	-4.199100	 4.932747	 0.180934	 89.782110	 78.203850	 180.000000	 8.981861	 13.442770	 86.331140	-33.767680	-4.708204	 14.099530	 4.900433	-7.454195	-5.909685	 6.112037	 4.509576	-0.364401	 4.968462	 1.518543	-9.347576	 5.168945	 0.703820	 2.021906
-0.000418	 0.017069	 1.308551	 0.004242	 0.007789	-0.086898	-17.275930	-1.823671	-179.204300	 1.469418	-12.261760	-0.716389	-3.368140	 64.669310	-3.073072	-2.385833	 28.452760	 0.000004	 17.146550	-2.341338	 179.410900	-1.446920	-12.971080	 0.745285	 3.354700	 64.835430	 2.919086	 2.384658	 28.388730	 0.000004	 2.046695	 2.749184	-0.009154	 1.054226	 3.572599	 0.435509	-3.167064	-4.512747	-0.698308	-91.776180	 78.527430	 180.000000	 67.388980	 45.982140	-49.678820	-8.142774	 1.104623	-2.757438	-31.234800	-4.716412	-4.441549	-2.635965	 4.993658	 6.788941	-5.165319	 0.784187	 3.516649	-5.225038	 0.466231	 0.424329	-0.000002	-3.783157	-0.089647	-3.071314	 5.021024	 0.134678	 89.782070	 78.203890	-180.000000	 8.994324	 13.670110	 86.318660	-33.919200	-4.775314	 14.169860	 5.088803	-5.761211	-6.022354	 6.112037	 4.509576	-0.364401	 4.968462	 1.518543	-9.347576	 5.168945	 0.703820	 2.021906
-0.000333	 0.016929	 1.310829	 0.003391	 0.009326	-0.045770	-17.260940	-1.850282	-179.239500	 1.468443	-12.337710	-0.720963	-3.400335	 64.339370	-3.030859	-2.385833	 28.452760	 0.000004	 17.132120	-2.314226	 179.379700	-1.448018	-12.888810	 0.740394	 3.376736	 64.425710	 2.887130	 2.384658	 28.388730	 0.000004	 1.142249	 2.743841	 0.008332	 0.594072	 3.574070	 0.300354	-1.783264	-4.549728	-0.418804	-91.776180	 78.527450	 180.000000	 67.252910	 45.829570	-48.925540	-8.116057	 1.564270	-3.906774	-31.035750	-2.427480	-4.346288	-2.635965	 4.993658	 6.788941	-5.165319	 0.784187	 3.516649	-5.225038	 0.466231	 0.424329	-0.000002	-3.783157	-0.089647	-1.724537	 5.090161	 0.076646	 89.782180	 78.203900	 179.999900	 8.998642	 13.926010	 86.295780	-34.088840	-4.853498	 14.255640	 5.106299	-3.452542	-6.142149	 6.112037	 4.509576	-0.364401	 4.968462	 1.518543	-9.347576	 5.168945	 0.703820	 2.021906
-0.000215	 0.016782	 1.312986	 0.000358	 0.011502	 0.005124	-17.244280	-1.881453	-179.283200	 1.467278	-12.427950	-0.726406	-3.430988	 64.032320	-2.990195	-2.385833	 28.452760	 0.000004	 17.120040	-2.283785	 179.341200	-1.449291	-12.792770	 0.734687	 3.397194	 64.024440	 2.856623	 2.384658	 28.388730	 0.000004	 0.210650	 2.738617	 0.067427	 0.123692	 3.574491	 0.060305	-0.351086	-4.569088	-0.082120	-91.776210	 78.527470	-180.000000	 67.220660	 45.708920	-48.457260	-8.090608	 1.899730	-4.746890	-30.823650	 0.026155	-4.256937	-2.635965	 4.993658	 6.788941	-5.165319	 0.784187	 3.516649	-5.225038	 0.466231	 0.424329	-0.000002	-3.783157	-0.089647	-0.335891	 5.120665	 0.015006	 89.782140	 78.203920	 180.000000	 8.902220	 14.158180	 86.245810	-34.050690	-4.867606	 14.325840	 4.389722	-0.744402	-6.226273	 6.112037	 4.509576	-0.364401	 4.968462	 1.518543	-9.347576	 5.168945	 0.703820	 2.021906
-0.000051	 0.016599	 1.314892	-0.001894	 0.010094	 0.044602	-17.227550	-1.922114	-179.312900	 1.465847	-12.537650	-0.733029	-3.459568	 63.739750	-2.951500	-2.385833	 28.452760	 0.000004	 17.107080	-2.260248	 179.309600	-1.450182	-12.724730	 0.730649	 3.415945	 63.642060	 2.827864	 2.384658	 28.388730	 0.000004	-0.721453	 2.736938	 0.132077	-0.347931	 3.578512	-0.165188	 1.080571	-4.568489	 0.248135	-91.776120	 78.527450	 179.999900	 67.265520	 45.609120	-48.111240	-8.060090	 2.237560	-5.594337	-30.602730	 2.509269	-4.181746	-2.635965	 4.993658	 6.788941	-5.165319	 0.784187	 3.516649	-5.225038	 0.466231	 0.424329	-0.000002	-3.783157	-0.089647	 1.052375	 5.109689	-0.046972	 89.782110	 78.203900	 180.000000	 8.866986	 14.709640	 86.510110	-33.340550	-4.492272	 13.813440	 3.747789	 1.734416	-6.249954	 6.112037	 4.509576	-0.364401	 4.968462	 1.518543	-9.347576	 5.168945	 0.703820	 2.021906
